M48
;Layer_Color=9474304
;FILE_FORMAT=2:4
INCH,TZ
;TYPE=PLATED
T1F00S00C0.0197
T2F00S00C0.0315
T3F00S00C0.1024
T4F00S00C0.1299
;TYPE=NON_PLATED
T5F00S00C0.0591
%
T01
X1122Y3130
X1457Y4094
X3780Y2913
X4291
X6024Y10984
X7874Y10236
Y13386
Y14567
X7480Y15354
X6299
X5118
X3937
X2756
X1575
X394
Y14173
X2008Y9449
Y8898
X1929Y6890
X1772Y6378
X2283Y6535
X2756Y6457
X1339Y5984
X4724Y6693
X4567Y8071
X5512Y8661
Y10236
X4567Y10079
X5512Y11929
T02
X5539Y1520
X5039Y2520
X6039
X7039
X8039
X9039
X8539Y1520
X7539
X6539
X9539
X8268Y4331
Y5331
X7205Y5173
X6205Y4673
X11811Y4331
Y5331
Y6331
Y7331
Y8331
X9646Y8307
X8268Y8331
Y7331
Y6331
X7205Y6173
Y7173
Y8173
Y9173
X6205Y8673
Y7673
Y6673
Y5673
X9646Y6339
X9295Y11205
X10295
X11295
X12295
X12795Y12205
X11795
X10795
X9795
X7138Y12220
X6138
X6638Y11220
X7638
X3988Y11205
X2988
X1988
X988
X709Y10063
Y9063
Y8063
Y7063
Y6063
X1488Y12205
X2488
X3488
X4488
T03
X15354Y2362
Y5118
X20472
Y2362
X25591
Y5118
X30709
Y2362
X35827
Y5118
Y7874
X30709
X25591
X20472
X15354
T04
X17717Y2362
Y5118
X22835
Y2362
X27953
Y5118
X33071
Y2362
X38189
Y5118
Y7874
Y10630
Y13189
X33071
Y10630
Y7874
X27953
Y10630
Y13189
X22835
Y10630
Y7874
X17717
Y10630
Y13189
T05
X4488Y1811
X6496Y9724
X8189Y11929
X13346Y11496
X5039
M30
