G04 Layer_Color=16711935*
%FSLAX24Y24*%
%MOIN*%
G70*
G01*
G75*
G04:AMPARAMS|DCode=33|XSize=47.4mil|YSize=43.4mil|CornerRadius=8.4mil|HoleSize=0mil|Usage=FLASHONLY|Rotation=270.000|XOffset=0mil|YOffset=0mil|HoleType=Round|Shape=RoundedRectangle|*
%AMROUNDEDRECTD33*
21,1,0.0474,0.0266,0,0,270.0*
21,1,0.0305,0.0434,0,0,270.0*
1,1,0.0169,-0.0133,-0.0153*
1,1,0.0169,-0.0133,0.0153*
1,1,0.0169,0.0133,0.0153*
1,1,0.0169,0.0133,-0.0153*
%
%ADD33ROUNDEDRECTD33*%
%ADD34O,0.0316X0.0690*%
%ADD35R,0.0316X0.0690*%
G04:AMPARAMS|DCode=36|XSize=47.4mil|YSize=43.4mil|CornerRadius=8.4mil|HoleSize=0mil|Usage=FLASHONLY|Rotation=180.000|XOffset=0mil|YOffset=0mil|HoleType=Round|Shape=RoundedRectangle|*
%AMROUNDEDRECTD36*
21,1,0.0474,0.0266,0,0,180.0*
21,1,0.0305,0.0434,0,0,180.0*
1,1,0.0169,-0.0153,0.0133*
1,1,0.0169,0.0153,0.0133*
1,1,0.0169,0.0153,-0.0133*
1,1,0.0169,-0.0153,-0.0133*
%
%ADD36ROUNDEDRECTD36*%
%ADD37C,0.0080*%
%ADD38C,0.0592*%
%ADD39C,0.1734*%
G04:AMPARAMS|DCode=40|XSize=185.2mil|YSize=185.2mil|CornerRadius=48.3mil|HoleSize=0mil|Usage=FLASHONLY|Rotation=0.000|XOffset=0mil|YOffset=0mil|HoleType=Round|Shape=RoundedRectangle|*
%AMROUNDEDRECTD40*
21,1,0.1852,0.0886,0,0,0.0*
21,1,0.0886,0.1852,0,0,0.0*
1,1,0.0966,0.0443,-0.0443*
1,1,0.0966,-0.0443,-0.0443*
1,1,0.0966,-0.0443,0.0443*
1,1,0.0966,0.0443,0.0443*
%
%ADD40ROUNDEDRECTD40*%
%ADD41R,0.0612X0.0612*%
%ADD42C,0.0612*%
%ADD43C,0.0434*%
%ADD44R,0.1655X0.1891*%
%ADD45R,0.1655X0.1261*%
D33*
X453Y3661D02*
D03*
X1122D02*
D03*
X1280Y5236D02*
D03*
X610D02*
D03*
D34*
X3272Y3661D02*
D03*
X2772Y5787D02*
D03*
X3272D02*
D03*
X2272Y3661D02*
D03*
X2772D02*
D03*
X1772D02*
D03*
X2272Y5787D02*
D03*
D35*
X1772D02*
D03*
D36*
X2362Y13051D02*
D03*
Y13720D02*
D03*
X2953Y13051D02*
D03*
Y13720D02*
D03*
X3543Y13051D02*
D03*
Y13720D02*
D03*
X906Y13051D02*
D03*
Y13720D02*
D03*
X1496Y13051D02*
D03*
Y13720D02*
D03*
D37*
X8189Y11929D02*
D03*
X4488Y1811D02*
D03*
X6496Y9724D02*
D03*
X13346Y11496D02*
D03*
X5039D02*
D03*
D38*
X6138Y12220D02*
D03*
X6638Y11220D02*
D03*
X7138Y12220D02*
D03*
X7638Y11220D02*
D03*
X8539Y1520D02*
D03*
X8039Y2520D02*
D03*
X7539Y1520D02*
D03*
X7039Y2520D02*
D03*
X6539Y1520D02*
D03*
X6039Y2520D02*
D03*
X5539Y1520D02*
D03*
X5039Y2520D02*
D03*
X9039D02*
D03*
X9539Y1520D02*
D03*
X6205Y5673D02*
D03*
X7205Y6173D02*
D03*
X6205Y6673D02*
D03*
X7205Y7173D02*
D03*
X6205Y7673D02*
D03*
X7205Y8173D02*
D03*
X6205Y8673D02*
D03*
X7205Y9173D02*
D03*
Y5173D02*
D03*
X6205Y4673D02*
D03*
X11811Y4331D02*
D03*
Y5331D02*
D03*
Y6331D02*
D03*
Y7331D02*
D03*
Y8331D02*
D03*
X12795Y12205D02*
D03*
X12295Y11205D02*
D03*
X11795Y12205D02*
D03*
X11295Y11205D02*
D03*
X10795Y12205D02*
D03*
X10295Y11205D02*
D03*
X9795Y12205D02*
D03*
X9295Y11205D02*
D03*
X4488Y12205D02*
D03*
X3988Y11205D02*
D03*
X3488Y12205D02*
D03*
X2988Y11205D02*
D03*
X2488Y12205D02*
D03*
X1988Y11205D02*
D03*
X1488Y12205D02*
D03*
X988Y11205D02*
D03*
X8268Y4331D02*
D03*
Y5331D02*
D03*
Y6331D02*
D03*
Y7331D02*
D03*
Y8331D02*
D03*
X709Y6063D02*
D03*
Y7063D02*
D03*
Y8063D02*
D03*
Y9063D02*
D03*
Y10063D02*
D03*
D39*
X35827Y7874D02*
D03*
Y5118D02*
D03*
Y2362D02*
D03*
X30709Y7874D02*
D03*
Y5118D02*
D03*
Y2362D02*
D03*
X25591Y7874D02*
D03*
Y5118D02*
D03*
Y2362D02*
D03*
X20472Y7874D02*
D03*
Y5118D02*
D03*
Y2362D02*
D03*
X15354Y7874D02*
D03*
Y5118D02*
D03*
Y2362D02*
D03*
D40*
X17717D02*
D03*
Y5118D02*
D03*
Y7874D02*
D03*
Y10630D02*
D03*
Y13189D02*
D03*
X22835D02*
D03*
Y10630D02*
D03*
Y7874D02*
D03*
Y5118D02*
D03*
Y2362D02*
D03*
X27953Y13189D02*
D03*
Y10630D02*
D03*
Y7874D02*
D03*
Y5118D02*
D03*
Y2362D02*
D03*
X33071Y13189D02*
D03*
Y10630D02*
D03*
Y7874D02*
D03*
Y5118D02*
D03*
Y2362D02*
D03*
X38189Y13189D02*
D03*
Y10630D02*
D03*
Y7874D02*
D03*
Y5118D02*
D03*
Y2362D02*
D03*
D41*
X9646Y8307D02*
D03*
D42*
X9646Y6339D02*
D03*
D43*
X1339Y5984D02*
D03*
X5512Y11929D02*
D03*
X6024Y10984D02*
D03*
X4567Y10079D02*
D03*
Y8071D02*
D03*
X2008Y8898D02*
D03*
Y9449D02*
D03*
X1929Y6890D02*
D03*
X4724Y6693D02*
D03*
X5512Y8661D02*
D03*
Y10236D02*
D03*
X7874D02*
D03*
Y14567D02*
D03*
Y13386D02*
D03*
X7480Y15354D02*
D03*
X6299D02*
D03*
X5118D02*
D03*
X3937D02*
D03*
X2756D02*
D03*
X1575D02*
D03*
X394Y14173D02*
D03*
Y15354D02*
D03*
X4291Y2913D02*
D03*
X3780D02*
D03*
X1122Y3130D02*
D03*
X2283Y6535D02*
D03*
X1772Y6378D02*
D03*
X2756Y6457D02*
D03*
X1457Y4094D02*
D03*
D44*
X35827Y10630D02*
D03*
X30709D02*
D03*
X25591D02*
D03*
X20472D02*
D03*
X15354D02*
D03*
X35827Y13189D02*
D03*
X30709D02*
D03*
X25591D02*
D03*
X20472D02*
D03*
X15354D02*
D03*
D45*
X2087Y9252D02*
D03*
Y7835D02*
D03*
M02*
