G04 Layer_Color=65535*
%FSLAX24Y24*%
%MOIN*%
G70*
G01*
G75*
%ADD16C,0.0118*%
%ADD30C,0.0079*%
%ADD31C,0.0050*%
%ADD32C,0.0039*%
D16*
X11339Y2388D02*
X11548Y1969D01*
X11758Y2388D01*
X11968Y2493D02*
X12073Y2598D01*
X12283D01*
X12388Y2493D01*
Y2073D01*
X12283Y1969D01*
X12073D01*
X11968Y2073D01*
Y2493D01*
X12598Y1969D02*
Y2073D01*
X12703D01*
Y1969D01*
X12598D01*
X13123D02*
X13333D01*
X13228D01*
Y2598D01*
X13123Y2493D01*
D30*
X5526Y4849D02*
G03*
X5526Y4599I0J-125D01*
G01*
X9222Y7987D02*
G03*
X9318Y6607I423J-664D01*
G01*
X9973D02*
G03*
X10069Y7987I-327J716D01*
G01*
X1526Y5154D02*
X5526D01*
X1526Y4295D02*
Y5154D01*
Y4295D02*
X5526D01*
Y4599D01*
Y4849D02*
Y5154D01*
D31*
X9349Y829D02*
X9469D01*
X9349Y509D02*
X9469D01*
X8129Y829D02*
X8249D01*
X8129Y509D02*
X8249D01*
X857Y3474D02*
Y3849D01*
X717Y3474D02*
Y3849D01*
X6150Y3435D02*
Y3810D01*
X6290Y3435D02*
Y3810D01*
X1015Y5049D02*
Y5424D01*
X875Y5049D02*
Y5424D01*
X5127Y6920D02*
X5502D01*
X5127Y6780D02*
X5502D01*
D32*
X11535Y5118D02*
Y5512D01*
X12165D02*
Y5906D01*
M02*
